<svg xmlns="http://www.w3.org/2000/svg" version="1.1" xmlns:xlink="http://www.w3.org/1999/xlink" xmlns:svgjs="http://svgjs.dev/svgjs" width="1500" height="1500" viewBox="0 0 1500 1500"><rect width="1500" height="1500" fill="#ffffff"></rect><g transform="matrix(0.6666666666666666,0,0,0.6666666666666666,250.91733333333332,546.1226666666666)"><svg viewBox="0 0 150 61" data-background-color="#ff5400" preserveAspectRatio="xMidYMid meet" height="610" width="1500" xmlns="http://www.w3.org/2000/svg" xmlns:xlink="http://www.w3.org/1999/xlink"><g id="tight-bounds" transform="matrix(1,0,0,1,-0.13759999999999195,0.08160000000000878)"><svg viewBox="0 0 150.27519999999998 60.8368" height="60.8368" width="150.27519999999998"><g><svg viewBox="0 0 150.27519999999998 60.8368" height="60.8368" width="150.27519999999998"><g><svg viewBox="0 0 150.27519999999998 60.8368" height="60.8368" width="150.27519999999998"><g id="textblocktransform"><svg viewBox="0 0 150.27519999999998 60.8368" height="60.8368" width="150.27519999999998" id="textblock"><g><svg viewBox="0 0 150.27519999999998 60.8368" height="60.8368" width="150.27519999999998"><g><svg><g></g><g></g></svg></g><g><svg><g><svg></svg></g><g></g></svg></g><g id="text-0"><svg viewBox="0 0 150.27519999999998 60.8368" height="60.8368" width="150.27519999999998"><g transform="matrix(1,0,0,1,0,0)"><svg width="75.07520000000001" viewBox="3.1 -37 46.4 37.6" height="60.8368" data-palette-color="#ffffff"><path d="M8.5 0L4 0 4-26 8.5-26 8.5 0ZM6.25-30.45L6.25-30.45Q4.95-30.45 4.03-31.4 3.1-32.35 3.1-33.6L3.1-33.6Q3.1-35.05 3.95-35.9 4.8-36.75 6.25-36.75L6.25-36.75Q7.55-36.75 8.47-35.83 9.4-34.9 9.4-33.6L9.4-33.6Q9.4-32.2 8.55-31.33 7.7-30.45 6.25-30.45ZM21 0L16.5 0 16.5-26 20.85-26 20.85-20.35Q21.5-22 22.6-23.43 23.7-24.85 25.35-25.73 27-26.6 29.2-26.6L29.2-26.6Q29.95-26.6 30.7-26.53 31.45-26.45 31.95-26.3L31.95-26.3 30.6-21.65Q29.65-22.05 28.35-22.05L28.35-22.05Q26.5-22.05 24.82-21 23.15-19.95 22.07-17.75 21-15.55 21-12.15L21-12.15 21 0ZM44.35 0.6L44.35 0.6Q42.05 0.6 40.2-0.28 38.35-1.15 37.27-3.1 36.2-5.05 36.2-8.15L36.2-8.15 36.2-37 40.7-37 40.7-8.6Q40.7-5.9 41.82-4.6 42.95-3.3 44.95-3.3L44.95-3.3Q45.9-3.3 46.82-3.53 47.75-3.75 48.4-4.05L48.4-4.05 49.5-0.4Q48.6 0 47.27 0.3 45.95 0.6 44.35 0.6Z" opacity="1" transform="matrix(1,0,0,1,0,0)" fill="#000000" class="wordmark-text-0" data-fill-palette-color="primary"></path></svg></g><g><svg xmlns="http://www.w3.org/2000/svg" xmlns:xlink="http://www.w3.org/1999/xlink" version="1.1" x="89.43840000000002" y="0" viewBox="11.026000000000003 11.026 77.94899999999998 77.94900000000001" enable-background="new 0 0 100 100" xml:space="preserve" height="60.8368" width="60.836799999999975" class="icon-cg-0" data-fill-palette-color="accent" id="cg-0"><g fill="#ffffff" data-fill-palette-color="accent"><path d="M50 11.026c-21.525 0-38.974 17.449-38.974 38.974 0 12.283 5.688 23.232 14.567 30.376l-14.567 8.599H50c21.525 0 38.975-17.449 38.975-38.975C88.975 28.475 71.523 11.026 50 11.026zM43.337 67.25c-2.068 0-3.75-1.683-3.75-3.75s1.682-3.75 3.75-3.75 3.75 1.683 3.75 3.75S45.405 67.25 43.337 67.25zM55.919 67.25c-2.067 0-3.75-1.683-3.75-3.75s1.683-3.75 3.75-3.75 3.75 1.683 3.75 3.75S57.986 67.25 55.919 67.25zM65.785 40.224l-4.041 12.582c-0.133 0.414-0.518 0.694-0.952 0.694h-19.65c0.197 0.745 0.35 1.323 0.434 1.644 0.374 1.436 1.127 1.44 1.139 1.442l15.789-0.003c2.083 0 3.148 1.53 3.449 2.435 0.174 0.523-0.109 1.09-0.634 1.265-0.104 0.034-0.211 0.051-0.315 0.051-0.416 0-0.803-0.261-0.945-0.674-0.043-0.117-0.427-1.076-1.555-1.076H42.794c-0.017 0.001-2.348 0.157-3.155-2.934-0.523-2.007-3.664-13.805-4.488-16.899h-3.898c-0.552 0-1-0.448-1-1s0.448-1 1-1h4.667c0.453 0 0.85 0.305 0.966 0.743 0 0 2.324 8.727 3.725 14.007h19.451l3.399-10.582H39.915c-0.552 0-1-0.448-1-1s0.448-1 1-1h24.918c0.319 0 0.62 0.153 0.808 0.411C65.829 39.587 65.883 39.919 65.785 40.224z" fill="#000000" data-fill-palette-color="accent"></path><circle cx="43.337" cy="63.5" r="1.8" fill="#000000" data-fill-palette-color="accent"></circle><circle cx="55.919" cy="63.5" r="1.8" fill="#000000" data-fill-palette-color="accent"></circle></g></svg></g></svg></g></svg></g></svg></g></svg></g><g></g></svg></g><defs></defs></svg><rect width="150.27519999999998" height="60.8368" fill="none" stroke="none" visibility="hidden"></rect></g></svg></g></svg>